<?xml version="1.0" standalone="no"?>
<!DOCTYPE svg PUBLIC "-//W3C//DTD SVG 20010904//EN"
 "http://www.w3.org/TR/2001/REC-SVG-20010904/DTD/svg10.dtd">
<svg version="1.0" xmlns="http://www.w3.org/2000/svg"
 width="500.000000pt" height="500.000000pt" viewBox="0 0 500.000000 500.000000"
 preserveAspectRatio="xMidYMid meet">

<g transform="translate(0.000000,500.000000) scale(0.100000,-0.100000)"
fill="#000000" stroke="none">
<path d="M1678 2229 c-10 -5 -18 -8 -18 -5 0 17 -61 -62 -71 -91 -48 -145 102
-274 239 -204 111 57 108 249 -5 296 -41 17 -120 19 -145 4z m77 -18 c-3 -10
0 -22 7 -28 15 -11 38 -11 38 0 0 4 0 12 0 17 0 6 -7 10 -17 10 -9 0 -14 3
-10 6 10 10 48 -7 41 -18 -5 -8 -1 -9 12 -5 18 7 18 6 -1 -9 -20 -16 -20 -16
1 -11 26 6 52 -7 35 -17 -6 -4 -11 -2 -11 5 0 7 -8 5 -22 -7 -12 -10 -18 -13
-14 -6 5 8 -1 12 -18 12 -16 0 -26 -6 -26 -15 0 -8 -7 -15 -17 -15 -15 0 -15
-1 0 -18 19 -21 22 -32 7 -32 -5 0 -10 5 -10 12 0 6 -8 20 -17 31 -10 11 -12
17 -5 13 6 -4 12 -3 12 3 0 5 -9 13 -20 16 -11 3 -20 12 -20 18 -1 7 -8 0 -16
-15 -15 -29 -27 -38 -18 -15 3 8 -2 14 -10 14 -9 0 -18 -13 -22 -31 -6 -26 -8
-28 -14 -12 -9 28 11 68 28 54 9 -8 11 -7 7 4 -3 8 1 21 10 28 17 14 21 0 4
-17 -8 -8 -7 -13 2 -18 8 -5 10 -4 5 3 -4 7 -2 13 3 13 12 2 26 5 39 9 4 1 10
2 15 1 4 0 7 4 7 10 0 7 -10 9 -27 4 -18 -4 -25 -3 -18 3 9 9 32 17 58 21 5 0
6 -7 2 -18z m132 -84 c-2 -7 0 -20 5 -29 5 -12 5 -18 -2 -18 -5 0 -10 7 -10
15 0 8 -4 15 -10 15 -5 0 -7 -7 -3 -16 4 -10 -2 -17 -16 -21 -16 -4 -20 -11
-16 -27 2 -11 2 -15 -1 -8 -4 9 -13 5 -30 -13 -29 -32 -32 -45 -4 -20 17 16
20 16 15 3 -9 -22 -35 -31 -41 -14 -3 8 -13 13 -22 11 -9 -2 -23 -4 -30 -4 -7
-1 -10 -5 -7 -11 10 -16 -5 -12 -31 9 -17 13 -20 21 -12 24 8 4 7 6 -4 6 -11
1 -16 9 -15 22 1 18 3 18 13 5 6 -9 14 -13 17 -9 4 3 1 13 -6 22 -10 14 -10
14 5 3 9 -8 22 -11 27 -7 7 3 8 0 5 -9 -3 -9 -10 -14 -14 -11 -5 3 -11 1 -15
-4 -10 -17 34 -34 51 -21 7 7 11 17 7 23 -4 6 -1 7 6 3 7 -5 10 -14 7 -22 -3
-8 0 -11 9 -7 8 3 12 9 9 14 -3 5 3 6 13 3 14 -4 12 -1 -6 15 l-23 21 23 -2
c18 -2 26 4 34 29 14 43 21 48 20 16 0 -14 7 -28 15 -31 13 -5 13 -3 1 12 -12
14 -11 19 4 36 18 20 39 18 32 -3z m-147 -31 c0 -3 -4 -8 -10 -11 -5 -3 -10
-1 -10 4 0 6 5 11 10 11 6 0 10 -2 10 -4z m-75 -106 c18 -20 18 -21 -1 -14
-18 7 -18 6 -1 -12 14 -15 19 -16 26 -5 6 10 10 10 16 1 4 -6 14 -9 22 -6 9 4
22 1 29 -5 11 -9 14 -9 14 0 0 7 5 9 10 6 20 -13 9 -20 -36 -23 -31 -1 -43 1
-38 9 4 7 0 9 -13 5 -25 -8 -86 55 -77 79 4 8 2 15 -3 15 -5 0 -9 10 -10 23
-2 18 3 15 21 -15 12 -21 31 -47 41 -58z m235 74 c0 -2 -7 -4 -15 -4 -8 0 -15
4 -15 10 0 5 7 7 15 4 8 -4 15 -8 15 -10z m-10 -29 c0 -8 -5 -15 -11 -15 -5 0
-7 5 -3 12 5 7 3 8 -5 3 -9 -5 -10 -10 -2 -18 14 -14 -15 -48 -35 -40 -10 4
-8 13 12 39 28 36 44 43 44 19z m-133 -61 c-3 -3 -12 -4 -19 -1 -8 3 -5 6 6 6
11 1 17 -2 13 -5z m67 -19 c-4 -8 -10 -15 -15 -15 -4 0 -6 7 -3 15 4 8 10 15
15 15 4 0 6 -7 3 -15z"/>
<path d="M1715 2179 c-3 -4 7 -15 21 -24 15 -9 23 -12 20 -6 -4 6 -2 11 4 11
7 0 7 5 -2 13 -13 15 -36 18 -43 6z"/>
<path d="M1855 2120 c-3 -6 1 -7 9 -4 18 7 21 14 7 14 -6 0 -13 -4 -16 -10z"/>
<path d="M1811 2069 c-7 -12 -10 -23 -8 -26 3 -3 11 5 17 17 6 12 10 23 8 25
-2 2 -10 -5 -17 -16z"/>
<path d="M1687 2009 c7 -7 15 -10 18 -7 3 3 -2 9 -12 12 -14 6 -15 5 -6 -5z"/>
<path d="M1630 2000 c6 -11 13 -20 16 -20 2 0 0 9 -6 20 -6 11 -13 20 -16 20
-2 0 0 -9 6 -20z"/>
<path d="M1847 2003 c-4 -3 -7 -11 -7 -17 0 -6 5 -5 12 2 6 6 9 14 7 17 -3 3
-9 2 -12 -2z"/>
<path d="M2390 1905 c0 -43 4 -75 10 -75 6 0 10 25 10 56 0 63 10 64 30 4 17
-53 38 -49 59 10 l16 45 3 -57 c4 -85 22 -71 22 18 0 65 -2 75 -17 72 -9 -2
-22 -21 -30 -43 -21 -60 -29 -61 -49 -6 -12 36 -23 51 -36 51 -16 0 -18 -9
-18 -75z"/>
<path d="M2617 1909 c-28 -72 -28 -103 0 -61 20 29 68 30 76 2 3 -11 11 -20
17 -20 7 0 10 7 6 18 -36 96 -52 132 -61 132 -6 0 -23 -32 -38 -71z m57 -21
c-3 -5 -12 -8 -20 -8 -15 0 -18 18 -7 45 5 15 8 14 19 -6 7 -13 10 -27 8 -31z"/>
<path d="M2770 1905 l0 -75 40 0 c22 0 40 5 40 10 0 6 -13 10 -30 10 l-30 0 0
65 c0 37 -4 65 -10 65 -6 0 -10 -32 -10 -75z"/>
<path d="M2900 1905 c0 -43 4 -75 10 -75 6 0 10 32 10 75 0 43 -4 75 -10 75
-6 0 -10 -32 -10 -75z"/>
</g>
</svg>
